<?xml version="1.0" encoding="utf-8"?>
<!-- Generator: Adobe Illustrator 18.0.0, SVG Export Plug-In . SVG Version: 6.00 Build 0)  -->
<!DOCTYPE svg PUBLIC "-//W3C//DTD SVG 1.1//EN" "http://www.w3.org/Graphics/SVG/1.1/DTD/svg11.dtd">
<svg version="1.1" id="Layer_1" xmlns="http://www.w3.org/2000/svg" xmlns:xlink="http://www.w3.org/1999/xlink" x="0px" y="0px"
	 width="1400px" height="980px" viewBox="0 0 1400 980" enable-background="new 0 0 1400 980" xml:space="preserve">
<rect y="-0.2" fill="#FFCF5E" width="1400" height="980"/>
<g>
	<g>
		<g>
			<polygon fill="#04A6A7" points="340.8,179.9 896.8,179.9 896.8,80.5 340.8,80.5 380.5,131.1 			"/>
		</g>

	</g>
	<g>
		<g>
			<g>
				<g>
					<circle fill="#E9CC85" cx="545.2" cy="498.7" r="222.8"/>
					<path fill="#FFFFFF" d="M545.2,723c-59.9,0-116.3-23.3-158.7-65.7c-42.4-42.4-65.7-98.7-65.7-158.7s23.3-116.3,65.7-158.7
						s98.7-65.7,158.7-65.7s116.3,23.3,158.7,65.7c42.4,42.4,65.7,98.7,65.7,158.7s-23.3,116.3-65.7,158.7
						C661.5,699.7,605.2,723,545.2,723z M545.2,277.4c-122,0-221.3,99.3-221.3,221.3s99.3,221.3,221.3,221.3
						c122,0,221.3-99.3,221.3-221.3S667.3,277.4,545.2,277.4z"/>
				</g>
				<g>
					<path fill="#FFFFFF" d="M545.2,723c-15.8,0-30.5-23.6-41.3-66.4c-10.7-42.2-16.5-98.3-16.5-158c0-59.6,5.9-115.7,16.5-158
						c10.8-42.8,25.5-66.4,41.3-66.4s30.5,23.6,41.3,66.4c10.7,42.2,16.5,98.3,16.5,158c0,59.6-5.9,115.7-16.5,158
						C575.7,699.5,561.1,723,545.2,723z M545.2,277.4c-14.1,0-28,23.4-38.3,64.1c-10.6,42-16.4,97.8-16.4,157.2
						c0,59.4,5.8,115.2,16.4,157.2c10.3,40.7,24.3,64.1,38.3,64.1s28-23.4,38.3-64.1c10.6-42,16.4-97.8,16.4-157.2
						c0-59.4-5.8-115.2-16.4-157.2C573.3,300.7,559.3,277.4,545.2,277.4z"/>
				</g>
				<g>
					<path fill="#FFFFFF" d="M545.2,723c-38.9,0-75.3-23.4-102.7-66c-27.2-42.3-42.3-98.6-42.3-158.4c0-59.8,15-116.1,42.3-158.4
						c27.4-42.5,63.9-66,102.7-66s75.3,23.4,102.7,66c27.2,42.3,42.3,98.6,42.3,158.4c0,59.8-15,116.1-42.3,158.4
						C620.6,699.6,584.1,723,545.2,723z M545.2,277.4c-78.2,0-141.9,99.3-141.9,221.3S467,719.9,545.2,719.9s141.9-99.3,141.9-221.3
						S623.5,277.4,545.2,277.4z"/>
				</g>
			</g>
			<g>
				<rect x="321.4" y="494.7" fill="#FFFFFF" width="445.7" height="3.1"/>
			</g>
		</g>
		<g>
			<g>
				<path fill="#FFFFFF" d="M544.7,442.7c-81.4,0-156.1-16.7-199.9-44.6l1.7-2.6c43.3,27.6,117.4,44.1,198.2,44.1
					c80.2,0,154-16.3,197.4-43.6l1.7,2.6C700,426.2,625.5,442.7,544.7,442.7z"/>
			</g>
			<g>
				<path fill="#FFFFFF" d="M544.7,361.5c-50.4,0-97.2-18.7-122.3-48.8l2.4-2c24.5,29.4,70.4,47.7,119.9,47.7
					c50.1,0,96.3-18.6,120.6-48.6l2.4,2C642.9,342.5,595.8,361.5,544.7,361.5z"/>
			</g>
		</g>
		<g>
			<g>
				<path fill="#FFFFFF" d="M743.3,601.3c-43.3-27.6-117.4-44.1-198.2-44.1c-80.2,0-154,16.3-197.4,43.6l-1.7-2.6
					c43.9-27.6,118.3-44.1,199.1-44.1c81.4,0,156.1,16.7,199.9,44.6L743.3,601.3z"/>
			</g>
			<g>
				<path fill="#FFFFFF" d="M424.5,686.9l-2.4-2c24.9-30.7,72-49.7,123-49.7c50.4,0,97.2,18.7,122.3,48.8l-2.4,2
					c-24.5-29.4-70.4-47.7-119.9-47.7C495,638.3,448.8,657,424.5,686.9z"/>
			</g>
		</g>
	</g>
	<g>
		<g>

				<rect x="322.9" y="441.8" transform="matrix(0.8147 0.5798 -0.5798 0.8147 329.7032 -146.1469)" fill="#10605E" width="141.4" height="2.2"/>
		</g>
		<g>

				<rect x="489.2" y="386.6" transform="matrix(0.7214 0.6925 -0.6925 0.7214 443.4221 -216.0623)" fill="#10605E" width="2.2" height="113"/>
		</g>
		<g>

				<rect x="407.4" y="320.5" transform="matrix(0.3907 0.9205 -0.9205 0.3907 597.7095 -259.7899)" fill="#10605E" width="175.4" height="2.2"/>
		</g>
		<g>

				<rect x="553.2" y="286.8" transform="matrix(0.9108 0.4129 -0.4129 0.9108 192.8426 -197.9079)" fill="#10605E" width="2.2" height="121"/>
		</g>
		<g>

				<rect x="395.5" y="437.5" transform="matrix(0.1604 0.9871 -0.9871 0.1604 819.36 22.1909)" fill="#10605E" width="2.2" height="110.4"/>
		</g>
		<g>

				<rect x="327.8" y="499.6" transform="matrix(0.9583 0.2857 -0.2857 0.9583 169.7334 -71.2061)" fill="#10605E" width="2.2" height="92.8"/>
		</g>
		<g>

				<rect x="247.2" y="484.6" transform="matrix(0.9454 0.3259 -0.3259 0.9454 174.463 -69.9576)" fill="#10605E" width="97.6" height="2.2"/>
		</g>
		<g>

				<rect x="354.8" y="279.7" transform="matrix(0.9483 0.3173 -0.3173 0.9483 127.0473 -95.227)" fill="#10605E" width="2.2" height="125.4"/>
		</g>
		<g>

				<rect x="223.7" y="363.4" transform="matrix(0.8007 0.5991 -0.5991 0.8007 275.3755 -98.699)" fill="#10605E" width="124.7" height="2.2"/>
		</g>
		<g>

				<rect x="291.8" y="381" transform="matrix(0.6191 0.7853 -0.7853 0.6191 453.8431 -64.0242)" fill="#10605E" width="2.2" height="109.6"/>
		</g>
		<g>

				<rect x="528.6" y="409.7" transform="matrix(0.9835 0.1807 -0.1807 0.9835 83.7048 -97.2333)" fill="#10605E" width="93.9" height="2.2"/>
		</g>
		<g>

				<rect x="448.1" y="503.9" transform="matrix(0.9586 0.2849 -0.2849 0.9586 165.506 -127.8792)" fill="#10605E" width="148.6" height="2.2"/>
		</g>
		<g>

				<rect x="404.2" y="541.9" transform="matrix(0.2261 0.9741 -0.9741 0.2261 888.6735 -32.6138)" fill="#10605E" width="121.4" height="2.2"/>
		</g>
		<g>

				<rect x="461.2" y="598.9" transform="matrix(0.9285 0.3712 -0.3712 0.9285 271.685 -125.6705)" fill="#10605E" width="2.2" height="87.9"/>
		</g>
		<g>

				<rect x="463.5" y="636.9" transform="matrix(0.7002 0.714 -0.714 0.7002 609.5242 -175.5448)" fill="#10605E" width="100.5" height="2.2"/>
		</g>
		<g>

				<rect x="646.2" y="436.1" transform="matrix(0.4749 0.88 -0.88 0.4749 777.4399 -308.6055)" fill="#10605E" width="2.2" height="122.1"/>
		</g>
		<g>

				<rect x="573.5" y="564" transform="matrix(0.5787 0.8156 -0.8156 0.5787 722.5609 -268.5272)" fill="#10605E" width="95.4" height="2.2"/>
		</g>
		<g>

				<rect x="647.5" y="343.8" transform="matrix(0.7761 0.6306 -0.6306 0.7761 388.7818 -322.4936)" fill="#10605E" width="2.2" height="85.1"/>
		</g>
		<g>

				<rect x="225.5" y="586.2" transform="matrix(0.9975 7.025044e-002 -7.025044e-002 0.9975 41.9263 -17.5596)" fill="#10605E" width="90.2" height="2.2"/>
		</g>
		<g>

				<rect x="291.2" y="629.4" transform="matrix(0.4564 0.8898 -0.8898 0.4564 743.7094 43.669)" fill="#10605E" width="89.9" height="2.2"/>
		</g>
		<g>

				<rect x="315.4" y="595.2" transform="matrix(0.9975 7.105774e-002 -7.105774e-002 0.9975 43.3733 -26.7091)" fill="#10605E" width="163.4" height="2.2"/>
		</g>
		<g>

				<rect x="535" y="495.2" transform="matrix(0.5506 0.8348 -0.8348 0.5506 711.8698 -193.9766)" fill="#10605E" width="2.2" height="137.8"/>
		</g>
		<g>

				<rect x="487.4" y="429.4" transform="matrix(0.3592 0.9333 -0.9333 0.3592 751.2159 -155.0982)" fill="#10605E" width="2.2" height="80.2"/>
		</g>
		<g>

				<rect x="614.1" y="444.1" transform="matrix(0.8388 0.5444 -0.5444 0.8388 349.0178 -288.4509)" fill="#10605E" width="95.1" height="2.2"/>
		</g>
	</g>
	<g>
		<g>
			<g>
				<path fill="#E48D2B" d="M693.8,444.8c-14.1-19.8-30.4-35.1-48.3-46.7c-2.7-1.7-5.9-2.7-9.1-2.7H430.9c-7.7,0-14.5,5.3-16.4,12.8
					l-10.8,42.5c-0.6,2.5-0.9,5-0.9,7.6v72.5h232.6h30.7h69l-0.5-38.1c-0.2-15.4-7.5-29.9-19.7-39.3l-6.9-5.3
					c-2.9-2.2-6.4-3.4-10-3.4H693.8z"/>
				<path fill="#72736E" d="M736.1,532H401.7v-73.6c0-2.6,0.3-5.3,1-7.8l10.8-42.5c2-8,9.2-13.5,17.4-13.5h205.5
					c3.5,0,6.8,1,9.7,2.8c18.4,11.9,34.7,27.5,48.3,46.5h3.6c3.8,0,7.6,1.3,10.6,3.6l6.9,5.3c12.6,9.6,19.9,24.3,20.1,40.1
					L736.1,532z M403.8,529.9H734l-0.5-37.1c-0.2-15.2-7.2-29.2-19.3-38.5l-6.9-5.3c-2.7-2.1-6-3.2-9.4-3.2h-4.7l-0.3-0.4
					c-13.5-18.9-29.7-34.6-48-46.4c-2.5-1.6-5.5-2.5-8.5-2.5H430.9c-7.3,0-13.6,4.9-15.4,12l-10.8,42.5c-0.6,2.4-0.9,4.9-0.9,7.3
					V529.9z"/>
			</g>
		</g>
		<g>
			<g>
				<path fill="#E8602F" d="M482.9,494.2h251.3c3.2,0,5.8,2.6,5.8,5.8v25.1c0,3.2-2.6,5.8-5.8,5.8H403.8c-3.6,0-6.4-2.9-6.4-6.4
					v-23.9c0-3.6,2.9-6.4,6.4-6.4h33.9"/>
				<path fill="#72736E" d="M734.2,532.4H403.8c-4.4,0-7.9-3.5-7.9-7.9v-23.9c0-4.4,3.5-7.9,7.9-7.9h33.9v2.9h-33.9
					c-2.7,0-5,2.2-5,5v23.9c0,2.7,2.2,5,5,5h330.4c2.4,0,4.4-2,4.4-4.4V500c0-2.4-2-4.4-4.4-4.4H482.9v-2.9h251.3
					c4,0,7.3,3.3,7.3,7.3v25.1C741.5,529.1,738.3,532.4,734.2,532.4z"/>
			</g>
		</g>
		<g>
			<g>
				<path fill="#E48D2B" d="M664.8,505.6H491.5c-0.9,0-1.5-0.7-1.5-1.5c0-0.9,0.7-1.5,1.5-1.5h173.2c0.9,0,1.5,0.7,1.5,1.5
					C666.3,504.9,665.6,505.6,664.8,505.6z"/>
			</g>
			<g>
				<path fill="#E48D2B" d="M664.8,520.1H491.5c-0.9,0-1.5-0.7-1.5-1.5c0-0.9,0.7-1.5,1.5-1.5h173.2c0.9,0,1.5,0.7,1.5,1.5
					C666.3,519.5,665.6,520.1,664.8,520.1z"/>
			</g>
			<g>
				<path fill="#E48D2B" d="M664.8,526H491.5c-0.9,0-1.5-0.7-1.5-1.5s0.7-1.5,1.5-1.5h173.2c0.9,0,1.5,0.7,1.5,1.5
					S665.6,526,664.8,526z"/>
			</g>
		</g>
		<g>
			<g>
				<path fill="#E48D2B" d="M447.5,505.6h-44.2c-0.9,0-1.5-0.7-1.5-1.5c0-0.9,0.7-1.5,1.5-1.5h44.2c0.9,0,1.5,0.7,1.5,1.5
					C449,504.9,448.3,505.6,447.5,505.6z"/>
			</g>
			<g>
				<path fill="#E48D2B" d="M447.5,520.1h-44.2c-0.9,0-1.5-0.7-1.5-1.5c0-0.9,0.7-1.5,1.5-1.5h44.2c0.9,0,1.5,0.7,1.5,1.5
					C449,519.5,448.3,520.1,447.5,520.1z"/>
			</g>
			<g>
				<path fill="#E48D2B" d="M447.5,526h-44.2c-0.9,0-1.5-0.7-1.5-1.5s0.7-1.5,1.5-1.5h44.2c0.9,0,1.5,0.7,1.5,1.5
					S448.3,526,447.5,526z"/>
			</g>
		</g>
		<g>
			<g>
				<g>
					<path fill="#434441" d="M479.2,516.3c0-16.4-13.3-29.7-29.7-29.7h-0.6c-16.4,0-29.7,13.3-29.7,29.7V531h59.9V516.3z"/>
					<path fill="#E48D2B" d="M480.6,532.5h-62.9v-16.2c0-17.2,14-31.1,31.1-31.1h0.6c17.2,0,31.1,14,31.1,31.1V532.5z M420.7,529.5
						h57v-13.3c0-15.5-12.6-28.2-28.2-28.2h-0.6c-15.5,0-28.2,12.7-28.2,28.2V529.5z"/>
				</g>
			</g>
			<g>
				<g>
					<g>
						<circle fill="#434441" cx="449.2" cy="525.7" r="25.7"/>
						<path fill="#FFCF5E" d="M449.2,552.9c-15,0-27.2-12.2-27.2-27.2c0-15,12.2-27.2,27.2-27.2c15,0,27.2,12.2,27.2,27.2
							C476.4,540.7,464.2,552.9,449.2,552.9z M449.2,501.4c-13.4,0-24.2,10.9-24.2,24.2c0,13.4,10.9,24.2,24.2,24.2
							c13.4,0,24.2-10.9,24.2-24.2C473.4,512.3,462.6,501.4,449.2,501.4z"/>
					</g>
				</g>
				<g>
					<g>
						<circle fill="#FFCF5E" cx="449.2" cy="525.7" r="16.3"/>
					</g>
				</g>
			</g>
		</g>
		<g>
			<g>
				<g>
					<path fill="#434441" d="M722,516.3c0-16.4-13.3-29.7-29.7-29.7h-0.6c-16.4,0-29.7,13.3-29.7,29.7V531H722V516.3z"/>
					<path fill="#E48D2B" d="M723.4,532.5h-62.9v-16.2c0-17.2,14-31.1,31.1-31.1h0.6c17.2,0,31.1,14,31.1,31.1V532.5z M663.5,529.5
						h57v-13.3c0-15.5-12.7-28.2-28.2-28.2h-0.6c-15.5,0-28.2,12.7-28.2,28.2V529.5z"/>
				</g>
			</g>
			<g>
				<g>
					<g>
						<circle fill="#434441" cx="692" cy="525.7" r="25.7"/>
						<path fill="#FFCF5E" d="M692,552.9c-15,0-27.2-12.2-27.2-27.2c0-15,12.2-27.2,27.2-27.2s27.2,12.2,27.2,27.2
							C719.2,540.7,707,552.9,692,552.9z M692,501.4c-13.4,0-24.2,10.9-24.2,24.2c0,13.4,10.9,24.2,24.2,24.2
							c13.4,0,24.2-10.9,24.2-24.2C716.2,512.3,705.4,501.4,692,501.4z"/>
					</g>
				</g>
				<g>
					<g>
						<circle fill="#FFCF5E" cx="692" cy="525.7" r="16.3"/>
					</g>
				</g>
			</g>
		</g>
	</g>
	<g>
		<g>
			<circle fill="#13BBC3" cx="584.9" cy="293.9" r="35.6"/>
		</g>
		<g>
			<g>
				<path fill="#FFFFFF" d="M605.7,302.4c-0.8-2-2.3-3.6-4.3-4.4l-5.5-2.1c-1.9-0.7-3.3-2.5-3.4-4.6c-1.9,1.8-4.2,3-6.7,3
					c-2.5,0-4.8-1.2-6.7-3c-0.2,2.1-1.5,3.9-3.4,4.6l-5.5,2.1c-2,0.8-3.6,2.4-4.3,4.4l-2.7,7.1h21.8h1.9h21.8L605.7,302.4z"/>
			</g>
			<g>
				<path fill="#FFFFFF" d="M578.2,286.7c0.3,0.5,0.7,1,1,1.5c1.8,2.3,4,3.9,6.5,3.9c2.5,0,4.7-1.6,6.5-3.9c0.4-0.5,0.7-1,1-1.5
					c0.4-0.6,0.7-1.2,1-1.8c1.2-2.4,1.8-5,1.8-7.2c0-5.7-4.6-10.4-10.4-10.4c-5.7,0-10.4,4.6-10.4,10.4c0,2.2,0.7,4.8,1.8,7.2
					C577.5,285.5,577.8,286.1,578.2,286.7z"/>
			</g>
		</g>
	</g>
	<g>
		<g>
			<circle fill="#13BBC3" cx="360.9" cy="271.2" r="34.7"/>
		</g>
		<g>
			<g>
				<path fill="#FFFFFF" d="M381.2,279.5c-0.7-2-2.3-3.5-4.2-4.2l-5.4-2.1c-1.9-0.7-3.2-2.5-3.4-4.5c-1.9,1.8-4.1,3-6.6,3
					c-2.5,0-4.7-1.2-6.6-3c-0.2,2-1.5,3.8-3.4,4.5l-5.4,2.1c-1.9,0.7-3.5,2.3-4.2,4.2l-2.6,6.9h21.2h1.8h21.2L381.2,279.5z"/>
			</g>
			<g>
				<path fill="#FFFFFF" d="M354.3,264.2c0.3,0.5,0.6,1,1,1.5c1.7,2.2,3.9,3.8,6.3,3.8c2.4,0,4.6-1.6,6.3-3.8c0.4-0.5,0.7-1,1-1.5
					c0.4-0.6,0.7-1.2,1-1.8c1.1-2.4,1.8-4.9,1.8-7.1c0-5.6-4.5-10.1-10.1-10.1c-5.6,0-10.1,4.5-10.1,10.1c0,2.1,0.7,4.7,1.8,7.1
					C353.7,263,354,263.6,354.3,264.2z"/>
			</g>
		</g>
	</g>
	<g>
		<g>
			<circle fill="#13BBC3" cx="224.3" cy="308.1" r="44.5"/>
		</g>
		<g>
			<g>
				<path fill="#FFFFFF" d="M250.4,318.8c-0.9-2.5-2.9-4.5-5.4-5.4l-6.9-2.7c-2.4-0.9-4.1-3.2-4.3-5.8c-2.4,2.3-5.3,3.8-8.4,3.8
					c-3.2,0-6-1.5-8.4-3.8c-0.2,2.6-1.9,4.8-4.3,5.8l-6.9,2.7c-2.5,1-4.5,2.9-5.4,5.4l-3.4,8.9h27.2h2.3h27.2L250.4,318.8z"/>
			</g>
			<g>
				<path fill="#FFFFFF" d="M215.9,299.1c0.4,0.7,0.8,1.3,1.3,1.9c2.2,2.9,5,4.9,8.1,4.9c3.1,0,5.9-2,8.1-4.9
					c0.5-0.6,0.9-1.2,1.3-1.9c0.5-0.7,0.9-1.5,1.3-2.3c1.4-3,2.3-6.3,2.3-9c0-7.2-5.8-13-13-13c-7.2,0-13,5.8-13,13
					c0,2.7,0.8,6,2.3,9C215,297.6,215.5,298.4,215.9,299.1z"/>
			</g>
		</g>
	</g>
	<g>
		<g>
			<circle fill="#13BBC3" cx="245.6" cy="479.2" r="28.9"/>
		</g>
		<g>
			<g>
				<path fill="#FFFFFF" d="M262.5,486.2c-0.6-1.6-1.9-2.9-3.5-3.5l-4.5-1.7c-1.6-0.6-2.7-2.1-2.8-3.7c-1.6,1.5-3.4,2.5-5.5,2.5
					c-2.1,0-3.9-1-5.5-2.5c-0.1,1.7-1.2,3.1-2.8,3.7l-4.5,1.7c-1.6,0.6-2.9,1.9-3.5,3.5l-2.2,5.8h17.7h1.5h17.7L262.5,486.2z"/>
			</g>
			<g>
				<path fill="#FFFFFF" d="M240.1,473.4c0.3,0.4,0.5,0.8,0.8,1.2c1.4,1.9,3.3,3.2,5.3,3.2c2,0,3.8-1.3,5.3-3.2
					c0.3-0.4,0.6-0.8,0.8-1.2c0.3-0.5,0.6-1,0.8-1.5c0.9-2,1.5-4.1,1.5-5.9c0-4.7-3.8-8.4-8.4-8.4c-4.7,0-8.4,3.8-8.4,8.4
					c0,1.8,0.6,3.9,1.5,5.9C239.6,472.4,239.8,472.9,240.1,473.4z"/>
			</g>
		</g>
	</g>
	<g>
		<g>
			<circle fill="#13BBC3" cx="209.3" cy="594.7" r="44.5"/>
		</g>
		<g>
			<g>
				<path fill="#FFFFFF" d="M235.4,605.4c-0.9-2.5-2.9-4.5-5.4-5.4l-6.9-2.7c-2.4-0.9-4.1-3.2-4.3-5.8c-2.4,2.3-5.3,3.8-8.4,3.8
					c-3.2,0-6-1.5-8.4-3.8c-0.2,2.6-1.9,4.8-4.3,5.8l-6.9,2.7c-2.5,1-4.5,2.9-5.4,5.4l-3.4,8.9h27.2h2.3h27.2L235.4,605.4z"/>
			</g>
			<g>
				<path fill="#FFFFFF" d="M200.9,585.7c0.4,0.7,0.8,1.3,1.3,1.9c2.2,2.9,5,4.9,8.1,4.9c3.1,0,5.9-2,8.1-4.9
					c0.5-0.6,0.9-1.2,1.3-1.9c0.5-0.7,0.9-1.5,1.3-2.3c1.4-3,2.3-6.3,2.3-9c0-7.2-5.8-13-13-13c-7.2,0-13,5.8-13,13
					c0,2.7,0.8,6,2.3,9C200,584.2,200.5,585,200.9,585.7z"/>
			</g>
		</g>
	</g>
	<g>
		<g>
			<circle fill="#13BBC3" cx="354.9" cy="674.4" r="29.8"/>
		</g>
		<g>
			<g>
				<path fill="#FFFFFF" d="M372.3,681.6c-0.6-1.7-2-3-3.6-3.6l-4.6-1.8c-1.6-0.6-2.7-2.1-2.9-3.9c-1.6,1.5-3.5,2.5-5.6,2.5
					c-2.1,0-4-1-5.6-2.5c-0.1,1.7-1.3,3.2-2.9,3.9l-4.6,1.8c-1.7,0.6-3,2-3.6,3.6l-2.3,6h18.3h1.6h18.3L372.3,681.6z"/>
			</g>
			<g>
				<path fill="#FFFFFF" d="M349.3,668.4c0.3,0.4,0.6,0.9,0.9,1.3c1.5,1.9,3.4,3.3,5.4,3.3c2.1,0,4-1.4,5.4-3.3
					c0.3-0.4,0.6-0.8,0.9-1.3c0.3-0.5,0.6-1,0.8-1.5c1-2,1.5-4.2,1.5-6.1c0-4.8-3.9-8.7-8.7-8.7c-4.8,0-8.7,3.9-8.7,8.7
					c0,1.8,0.6,4,1.5,6.1C348.7,667.4,348.9,667.9,349.3,668.4z"/>
			</g>
		</g>
	</g>
	<g>
		<g>
			<circle fill="#13BBC3" cx="435.9" cy="692.4" r="25.5"/>
		</g>
		<g>
			<g>
				<path fill="#FFFFFF" d="M450.8,698.5c-0.5-1.4-1.7-2.6-3.1-3.1l-4-1.5c-1.4-0.5-2.3-1.8-2.5-3.3c-1.4,1.3-3,2.2-4.8,2.2
					c-1.8,0-3.5-0.9-4.8-2.2c-0.1,1.5-1.1,2.8-2.5,3.3l-4,1.5c-1.4,0.6-2.6,1.7-3.1,3.1l-1.9,5.1h15.6h1.3h15.6L450.8,698.5z"/>
			</g>
			<g>
				<path fill="#FFFFFF" d="M431,687.2c0.2,0.4,0.5,0.7,0.7,1.1c1.3,1.7,2.9,2.8,4.7,2.8c1.8,0,3.4-1.2,4.7-2.8
					c0.3-0.3,0.5-0.7,0.7-1.1c0.3-0.4,0.5-0.9,0.7-1.3c0.8-1.7,1.3-3.6,1.3-5.2c0-4.1-3.3-7.4-7.4-7.4c-4.1,0-7.4,3.3-7.4,7.4
					c0,1.6,0.5,3.5,1.3,5.2C430.5,686.3,430.8,686.8,431,687.2z"/>
			</g>
		</g>
	</g>
	<g>
		<g>
			<circle fill="#13BBC3" cx="457.7" cy="219" r="44.5"/>
		</g>
		<g>
			<g>
				<path fill="#FFFFFF" d="M483.8,229.7c-0.9-2.5-2.9-4.5-5.4-5.4l-6.9-2.7c-2.4-0.9-4.1-3.2-4.3-5.8c-2.4,2.3-5.3,3.8-8.4,3.8
					c-3.2,0-6-1.5-8.4-3.8c-0.2,2.6-1.9,4.8-4.3,5.8l-6.9,2.7c-2.5,1-4.5,2.9-5.4,5.4l-3.4,8.9h27.2h2.3h27.2L483.8,229.7z"/>
			</g>
			<g>
				<path fill="#FFFFFF" d="M449.3,210c0.4,0.7,0.8,1.3,1.3,1.9c2.2,2.9,5,4.9,8.1,4.9c3.1,0,5.9-2,8.1-4.9c0.5-0.6,0.9-1.2,1.3-1.9
					c0.5-0.7,0.9-1.5,1.3-2.3c1.4-3,2.3-6.3,2.3-9c0-7.2-5.8-13-13-13c-7.2,0-13,5.8-13,13c0,2.7,0.8,6,2.3,9
					C448.4,208.5,448.9,209.3,449.3,210z"/>
			</g>
		</g>
	</g>
	<g>
		<g>
			<circle fill="#13BBC3" cx="557.1" cy="695.2" r="34.7"/>
		</g>
		<g>
			<g>
				<path fill="#FFFFFF" d="M577.4,703.5c-0.7-2-2.3-3.5-4.2-4.2l-5.4-2.1c-1.9-0.7-3.2-2.5-3.4-4.5c-1.9,1.8-4.1,3-6.6,3
					c-2.5,0-4.7-1.2-6.6-3c-0.2,2-1.5,3.8-3.4,4.5l-5.4,2.1c-1.9,0.7-3.5,2.3-4.2,4.2l-2.6,6.9h21.2h1.8H580L577.4,703.5z"/>
			</g>
			<g>
				<path fill="#FFFFFF" d="M550.5,688.2c0.3,0.5,0.6,1,1,1.5c1.7,2.2,3.9,3.8,6.3,3.8c2.4,0,4.6-1.6,6.3-3.8c0.4-0.5,0.7-1,1-1.5
					c0.4-0.6,0.7-1.2,1-1.8c1.1-2.4,1.8-4.9,1.8-7.1c0-5.6-4.5-10.1-10.1-10.1c-5.6,0-10.1,4.5-10.1,10.1c0,2.1,0.7,4.7,1.8,7.1
					C549.8,687,550.1,687.6,550.5,688.2z"/>
			</g>
		</g>
	</g>
	<g>
		<g>
			<circle fill="#13BBC3" cx="653" cy="618" r="23.1"/>
		</g>
		<g>
			<g>
				<path fill="#FFFFFF" d="M666.5,623.6c-0.5-1.3-1.5-2.3-2.8-2.8l-3.6-1.4c-1.3-0.5-2.1-1.6-2.2-3c-1.2,1.2-2.7,2-4.4,2
					c-1.6,0-3.1-0.8-4.4-2c-0.1,1.3-1,2.5-2.2,3l-3.6,1.4c-1.3,0.5-2.3,1.5-2.8,2.8l-1.8,4.6h14.2h1.2h14.2L666.5,623.6z"/>
			</g>
			<g>
				<path fill="#FFFFFF" d="M648.6,613.3c0.2,0.3,0.4,0.7,0.7,1c1.2,1.5,2.6,2.6,4.2,2.6c1.6,0,3.1-1.1,4.2-2.6
					c0.2-0.3,0.5-0.6,0.7-1c0.2-0.4,0.5-0.8,0.7-1.2c0.8-1.6,1.2-3.3,1.2-4.7c0-3.7-3-6.7-6.7-6.7c-3.7,0-6.7,3-6.7,6.7
					c0,1.4,0.4,3.1,1.2,4.7C648.2,612.5,648.4,612.9,648.6,613.3z"/>
			</g>
		</g>
	</g>
	<g>
		<g>
			<circle fill="#13BBC3" cx="681.7" cy="338.8" r="23.1"/>
		</g>
		<g>
			<g>
				<path fill="#FFFFFF" d="M695.3,344.3c-0.5-1.3-1.5-2.3-2.8-2.8l-3.6-1.4c-1.3-0.5-2.1-1.6-2.2-3c-1.2,1.2-2.7,2-4.4,2
					c-1.6,0-3.1-0.8-4.4-2c-0.1,1.3-1,2.5-2.2,3l-3.6,1.4c-1.3,0.5-2.3,1.5-2.8,2.8l-1.8,4.6h14.2h1.2H697L695.3,344.3z"/>
			</g>
			<g>
				<path fill="#FFFFFF" d="M677.4,334.1c0.2,0.3,0.4,0.7,0.7,1c1.2,1.5,2.6,2.6,4.2,2.6c1.6,0,3.1-1.1,4.2-2.6
					c0.2-0.3,0.5-0.6,0.7-1c0.2-0.4,0.5-0.8,0.7-1.2c0.8-1.6,1.2-3.3,1.2-4.7c0-3.7-3-6.7-6.7-6.7c-3.7,0-6.7,3-6.7,6.7
					c0,1.4,0.4,3.1,1.2,4.7C676.9,333.3,677.1,333.7,677.4,334.1z"/>
			</g>
		</g>
	</g>
	<g>
		<g>
			<circle fill="#13BBC3" cx="483.7" cy="593.5" r="35.2"/>
		</g>
		<g>
			<g>
				<path fill="#FFFFFF" d="M504.3,601.9c-0.7-2-2.3-3.5-4.3-4.3l-5.5-2.1c-1.9-0.7-3.2-2.5-3.4-4.5c-1.9,1.8-4.1,3-6.6,3
					c-2.5,0-4.8-1.2-6.6-3c-0.2,2-1.5,3.8-3.4,4.5l-5.5,2.1c-2,0.8-3.5,2.3-4.3,4.3l-2.7,7h21.5h1.8H507L504.3,601.9z"/>
			</g>
			<g>
				<path fill="#FFFFFF" d="M477.1,586.4c0.3,0.5,0.7,1,1,1.5c1.8,2.3,4,3.9,6.4,3.9c2.4,0,4.7-1.6,6.4-3.9c0.4-0.5,0.7-1,1-1.5
					c0.4-0.6,0.7-1.2,1-1.8c1.1-2.4,1.8-5,1.8-7.1c0-5.7-4.6-10.2-10.2-10.2c-5.7,0-10.2,4.6-10.2,10.2c0,2.2,0.7,4.8,1.8,7.1
					C476.4,585.2,476.7,585.8,477.1,586.4z"/>
			</g>
		</g>
	</g>
	<g>
		<g>
			<circle fill="#13BBC3" cx="334.4" cy="518" r="32.9"/>
		</g>
		<g>
			<g>
				<path fill="#FFFFFF" d="M353.6,525.9c-0.7-1.9-2.2-3.3-4-4l-5.1-2c-1.8-0.7-3-2.3-3.2-4.3c-1.8,1.7-3.9,2.8-6.2,2.8
					c-2.3,0-4.5-1.1-6.2-2.8c-0.2,1.9-1.4,3.6-3.2,4.3l-5.1,2c-1.8,0.7-3.3,2.2-4,4l-2.5,6.6h20.2h1.7h20.2L353.6,525.9z"/>
			</g>
			<g>
				<path fill="#FFFFFF" d="M328.1,511.3c0.3,0.5,0.6,0.9,1,1.4c1.6,2.1,3.7,3.6,6,3.6c2.3,0,4.4-1.5,6-3.6c0.3-0.4,0.7-0.9,1-1.4
					c0.3-0.5,0.6-1.1,0.9-1.7c1.1-2.2,1.7-4.7,1.7-6.7c0-5.3-4.3-9.6-9.6-9.6c-5.3,0-9.6,4.3-9.6,9.6c0,2,0.6,4.5,1.7,6.7
					C327.5,510.2,327.8,510.8,328.1,511.3z"/>
			</g>
		</g>
	</g>
	<g>
		<g>
			<path fill="#F9E8B4" d="M1208.4,804.7l-5.9-183.8l6.5-43l-189.5-225.8l-113.8,251l24.6,52.5c11.3,24.1,32.4,42.1,57.8,49.6
				l5.6,1.6l-0.7,97.9"/>
			<path fill="#AD792C" d="M1205.3,804.8l-5.9-184.1l6.4-41.9l-185.4-221L909.2,603l24,51.2c10.9,23.2,31.3,40.7,55.9,47.9l7.9,2.3
				l-0.7,100.3l-6.2,0l0.6-95.6l-3.4-1c-26.3-7.7-48.1-26.4-59.8-51.2l-25.3-53.8l116.4-256.8L1212.4,577l-6.7,44.1l5.9,183.5
				L1205.3,804.8z"/>
		</g>
		<g>
			<path fill="#E9CC85" d="M1191.4,611.3c0,0-49.9,49.9-128,70.2c0,0,28.1,6.2,31.2,25v66.3h102.1L1191.4,611.3z"/>
		</g>
		<g>
			<path fill="#E9CC85" d="M1032.4,515.5c-36.1,0.1-73.8,9.7-99.6,34.8c-9,8.7-16.5,19.8-17.6,32.3c-1.4,16.7,8.7,32,18.5,45.6
				c9,12.7,18.3,25.7,31.1,34.5c7.9,5.5,17.5,9.4,27.1,8.3c12.1-1.3,22.1-10,29-20c6.9-10,11.3-21.4,17.3-31.9
				c20.3,15.8,46.8,23.5,72.4,21.1c13-1.2,26.7-5.6,34.6-16.1c7.3-9.7,8.2-23,5.7-34.9c-5.1-24.7-23.3-45.5-45.4-57.6
				C1083.4,519.6,1057.6,515.4,1032.4,515.5z"/>
		</g>
		<g>
			<path fill="#AFB0AA" d="M839.3,569V112.5c0-20.3,16.5-36.8,36.8-36.8h201c20.3,0,36.8,16.5,36.8,36.8V569
				c0,20.3-16.5,36.8-36.8,36.8h-201C855.8,605.8,839.3,589.3,839.3,569z"/>
		</g>
		<g>
			<path fill="#FFFFFF" d="M1076.9,599.5H876.4c-17,0-30.8-13.8-30.8-30.8v-456c0-17,13.8-30.8,30.8-30.8h200.6
				c17,0,30.8,13.8,30.8,30.8v456C1107.7,585.8,1094,599.5,1076.9,599.5z"/>
		</g>
		<g>
			<rect x="860" y="121.8" fill="#04A6A7" width="235.6" height="435.5"/>
		</g>
		<g>
			<rect x="146.3" y="551.9" fill="#04A6A7" width="728.4" height="6.2"/>
		</g>
		<g>
			<path fill="#F9E8B4" d="M867.4,320.5l-0.4,0.4c-12.3,12.3-32.2,12.3-44.5,0l-42.3-42.3c-12.3-12.3-12.3-32.2,0-44.5l0.4-0.4
				c12.3-12.3,32.2-12.3,44.5,0l42.3,42.3C879.7,288.3,879.7,308.2,867.4,320.5z"/>
			<path fill="#AD792C" d="M844.7,333.3c-9.2,0-17.9-3.6-24.4-10.1L778,280.9c-13.5-13.5-13.5-35.4,0-48.9l0.4-0.4
				c6.5-6.5,15.2-10.1,24.4-10.1c9.2,0,17.9,3.6,24.4,10.1l42.3,42.3c6.5,6.5,10.1,15.2,10.1,24.4c0,9.2-3.6,17.9-10.1,24.4
				l-0.4,0.4C862.7,329.7,854,333.3,844.7,333.3z M802.9,227.6c-7.6,0-14.7,3-20.1,8.3l-0.4,0.4c-11.1,11.1-11.1,29.1,0,40.1
				l42.3,42.3c5.4,5.4,12.5,8.3,20.1,8.3c7.6,0,14.7-3,20.1-8.3l0.4-0.4c5.4-5.4,8.3-12.5,8.3-20.1c0-7.6-3-14.7-8.3-20.1L823,235.9
				C817.6,230.6,810.5,227.6,802.9,227.6z"/>
		</g>
		<g>
			<path fill="#E9CC85" d="M786.9,240.2l-0.3,0.3c-4.3,4.3-6.6,9.9-6.6,15.9c0,6,2.3,11.7,6.6,15.9l42.3,42.3
				c4.2,4.2,9.9,6.6,15.9,6.6s11.7-2.3,15.9-6.6l0.3-0.3L786.9,240.2z"/>
		</g>
		<g>
			<path fill="#F9E8B4" d="M851.3,403.6l-0.4,0.4c-11.7,11.7-30.6,11.7-42.3,0l-18.3-18.3c-11.7-11.7-11.7-30.6,0-42.3l0.4-0.4
				c11.7-11.7,30.6-11.7,42.3,0l18.3,18.3C862.9,373,862.9,391.9,851.3,403.6z"/>
			<path fill="#AD792C" d="M829.7,415.9c-8.8,0-17.1-3.4-23.3-9.7L788.1,388c-6.2-6.2-9.7-14.5-9.7-23.3s3.4-17.1,9.7-23.3l0.4-0.4
				c6.2-6.2,14.5-9.7,23.3-9.7c8.8,0,17.1,3.4,23.3,9.7l18.3,18.2c12.9,12.9,12.9,33.8,0,46.7l-0.4,0.4
				C846.8,412.5,838.5,415.9,829.7,415.9z M811.9,337.4c-7.2,0-13.9,2.8-19,7.9l-0.4,0.4c-5.1,5.1-7.9,11.8-7.9,19s2.8,13.9,7.9,19
				l18.2,18.3c5.1,5.1,11.8,7.9,19,7.9c7.2,0,13.9-2.8,19-7.9l0.4-0.4c10.5-10.5,10.5-27.5,0-37.9l-18.3-18.2
				C825.7,340.2,819,337.4,811.9,337.4z"/>
		</g>
		<g>
			<path fill="#E9CC85" d="M796.3,350.1c-7.9,8.2-7.8,21.2,0.3,29.3l18.3,18.2c4,4,9.2,6.1,14.8,6.1c5.5,0,10.6-2.1,14.5-5.9
				L796.3,350.1z"/>
		</g>
		<g>
			<path fill="#F9E8B4" d="M850.1,486.2l-0.4,0.4c-10.8,10.8-28.2,10.8-39,0l-33.3-33.3c-10.8-10.8-10.8-28.2,0-39l0.4-0.4
				c10.8-10.8,28.2-10.8,39,0l33.3,33.3C860.9,458,860.9,475.4,850.1,486.2z"/>
			<path fill="#AD792C" d="M830.2,497.7c-8.2,0-15.9-3.2-21.7-9l-33.3-33.3c-12-12-12-31.4,0-43.4l0.4-0.4c5.8-5.8,13.5-9,21.7-9
				c8.2,0,15.9,3.2,21.7,9l33.3,33.3c12,12,12,31.4,0,43.4l-0.4,0.4C846.1,494.6,838.4,497.7,830.2,497.7z M797.4,408.9
				c-6.5,0-12.7,2.5-17.3,7.2l-0.4,0.4c-9.5,9.5-9.5,25.1,0,34.6l33.3,33.3c4.6,4.6,10.8,7.2,17.3,7.2c6.5,0,12.7-2.5,17.3-7.2
				l0.4-0.4c9.5-9.5,9.5-25.1,0-34.6l-33.3-33.3C810,411.5,803.9,408.9,797.4,408.9z"/>
		</g>
		<g>
			<path fill="#E9CC85" d="M784.4,420.1c-0.1,0.1-0.1,0.1-0.2,0.2l-0.4,0.4c-3.5,3.5-5.4,8.2-5.4,13.2s1.9,9.6,5.4,13.2l33.3,33.3
				c3.5,3.5,8.2,5.4,13.2,5.4c5,0,9.6-1.9,13.1-5.4l0.4-0.4c0.1-0.1,0.1-0.1,0.2-0.2L784.4,420.1z"/>
		</g>
		<g>
			<path fill="#F9E8B4" d="M855.9,567.4l-1.4,1.4c-9.7,9.7-25.5,9.7-35.2,0l-26.5-26.5c-9.7-9.7-9.7-25.5,0-35.2l1.4-1.4
				c9.7-9.7,25.5-9.7,35.2,0l26.5,26.5C865.7,541.9,865.7,557.7,855.9,567.4z"/>
			<path fill="#AD792C" d="M836.9,578.8c-7.7,0-14.9-3-20.4-8.4l-25.3-25.3c-5.4-5.4-8.4-12.7-8.4-20.4c0-7.7,3-14.9,8.4-20.4
				l0.3-0.3c5.4-5.4,12.7-8.4,20.4-8.4c7.7,0,14.9,3,20.4,8.4l25.3,25.3c5.4,5.4,8.4,12.7,8.4,20.4c0,7.7-3,14.9-8.4,20.4l-0.3,0.3
				C851.8,575.9,844.6,578.8,836.9,578.8z M811.9,501.9c-6,0-11.7,2.3-16,6.6l-0.3,0.3c-4.3,4.3-6.6,9.9-6.6,16c0,6,2.3,11.7,6.6,16
				L821,566c4.3,4.3,9.9,6.6,16,6.6c6,0,11.7-2.3,16-6.6l0.3-0.3c4.3-4.3,6.6-9.9,6.6-16s-2.3-11.7-6.6-16l-25.3-25.3
				C823.6,504.2,817.9,501.9,811.9,501.9z"/>
		</g>
		<g>
			<path fill="#E9CC85" d="M800.5,512.2c-0.2,0.2-0.4,0.4-0.6,0.6c-3.2,3.2-5,7.4-5,12c0,4.5,1.8,8.8,5,12l25.1,25.1
				c3.2,3.2,7.4,5,12,5c4.5,0,8.8-1.8,12-5c0.2-0.2,0.4-0.4,0.6-0.6L800.5,512.2z"/>
		</g>
	</g>
	<g>
		<path fill="#FFFBEF" d="M844.7,321.2c6,0,11.7-2.3,15.9-6.6l0.4-0.4c4.3-4.3,6.6-9.9,6.6-15.9c0-6-2.3-11.7-6.6-15.9l-18.2-18.2
			l-32.3,32.3l18.2,18.2C833.1,318.8,838.7,321.2,844.7,321.2z"/>
	</g>
	<g>
		<path fill="#FFFBEF" d="M829.7,403.8c5.6,0,10.9-2.2,14.8-6.1l0.4-0.4c8.2-8.2,8.2-21.5,0-29.6l-7-7l-30,30l7,7
			C818.8,401.6,824.1,403.8,829.7,403.8z"/>
	</g>
	<g>
		<path fill="#FFFBEF" d="M830.2,485.7c5,0,9.6-1.9,13.1-5.4l0.4-0.4c3.5-3.5,5.4-8.2,5.4-13.2s-1.9-9.6-5.4-13.2l-13.2-13.2
			L803.9,467l13.2,13.2C820.6,483.7,825.3,485.7,830.2,485.7z"/>
	</g>
	<g>
		<path fill="#FFFBEF" d="M840.3,529.3l-23.9,23.9l8.6,8.6c3.2,3.2,7.4,5,12,5c4.5,0,8.8-1.8,12-5c3.2-3.2,5-7.4,5-12
			c0-4.5-1.8-8.8-5-12L840.3,529.3z"/>
	</g>
	<g>
		<g>
			<path fill="#FFFFFF" d="M928.6,184c-3.6,0-6.4-1.1-8.3-3.2c-1.9-2.1-3-5-3.2-8.7l5.8-1.4c0.3,5.8,2.2,8.6,5.8,8.6
				c2.9,0,4.3-1.4,4.3-4.3c0-0.9-0.1-1.6-0.3-2.4c-0.2-0.7-0.6-1.4-1.1-2c-0.5-0.6-0.9-1.1-1.3-1.5c-0.4-0.4-0.9-0.8-1.6-1.4
				l-7.2-5.8c-1.3-1-2.4-2.4-3.2-3.9c-0.8-1.6-1.2-3.4-1.2-5.5c0-3,0.9-5.3,2.8-7.1c1.8-1.8,4.3-2.6,7.3-2.6c3.3,0,5.9,0.8,7.8,2.4
				c1.9,1.6,3.1,3.9,3.6,6.8c0,0.3,0.1,0.8,0.2,1.3l-5.8,1.4c0-0.3-0.1-0.6-0.1-1.1c-0.3-1.8-0.8-3.3-1.7-4.4
				c-0.9-1.1-2.2-1.7-3.9-1.7c-1.4,0-2.4,0.4-3.2,1.2c-0.8,0.8-1.1,1.8-1.1,3.2c0,2.3,1,4.2,2.9,5.7l7.2,5.8
				c3.8,3.1,5.8,6.8,5.8,11.1c0,3-0.9,5.3-2.7,6.9C934.2,183.2,931.7,184,928.6,184z"/>
			<path fill="#FFFFFF" d="M942.9,183.6v-40.3h5.8v17.3h10.1v-17.3h5.8v40.3h-5.8v-18.7h-10.1v18.7H942.9z"/>
			<path fill="#FFFFFF" d="M967.8,183.6l8.6-40.3h5.8l8.6,40.3h-5.8l-2.2-10.1h-7.2l-2.2,10.1H967.8z M976.4,169.2h5.8l-2.9-17.3
				L976.4,169.2z"/>
			<path fill="#FFFFFF" d="M994.1,183.6v-40.3h7.2c4.3,0,7.5,0.8,9.7,2.5c2.2,1.7,3.3,4.4,3.3,8.3c0,2.4-0.4,4.4-1.3,6
				c-0.9,1.6-2.1,2.7-3.8,3.3l6.5,20.2h-5.7l-5.8-18.7h-4.3v18.7H994.1z M999.8,160.6h1.4c2.4,0,4.2-0.5,5.4-1.5
				c1.2-1,1.8-2.7,1.8-5c0-2.3-0.6-3.9-1.8-5c-1.2-1-3-1.5-5.4-1.5h-1.4V160.6z"/>
			<path fill="#FFFFFF" d="M1019,183.6v-40.3h15.8v4.3h-10.1v13h7.2v4.3h-7.2v14.4h10.1v4.3H1019z"/>
		</g>
		<g>
			<path fill="#FFFFFF" d="M979.1,223.5c-57.6,0-104.5-46.9-104.5-104.5h5.9c0,54.4,44.3,98.7,98.7,98.7c54.4,0,98.7-44.3,98.7-98.7
				h5.9C1083.6,176.6,1036.7,223.5,979.1,223.5z"/>
		</g>
	</g>
	<g>
		<path fill="#F9E8B4" d="M1208.6,591.6c1.5-4.5,11.6-90.9,4.1-104.2c-5-8.9-35.4-78.7-55.1-124.1c-10.9-25.1-31.6-44.7-57.4-54.1
			l-28.2-10.3l-24.9-17c-12.1-8.3-22.3-19.1-29.9-31.7l-12.8-21.1c-8.1-13.4-26.8-15.5-37.6-4.1l-0.3,0.3
			c-6.8,7.1-9.7,17.1-7.7,26.8l8.8,43.8c2.1,10.7,8.3,20.3,17.2,26.6l49.9,35.7l13,30.1c7,16.1,10,33.7,8.8,51.2l-2.3,33.3
			c-0.5,7.1-0.2,19.9-0.2,27c-0.2,41.6-2.2,74.8,38.7,113.1c0.6,0.6,1.2,1.1,1.8,1.6c31.3,28.6,80.6,23.3,105.6-11L1208.6,591.6z"/>
		<path fill="#AD792C" d="M1142,636C1142,636,1142,636,1142,636c-18.5,0-36.1-6.8-49.7-19.3c-0.6-0.5-1.2-1.1-1.8-1.7
			c-40.1-37.6-39.9-71.2-39.7-110.1c0-1.8,0-3.5,0-5.3c0-2,0-4.3,0-6.9c0-7.1-0.1-15.1,0.3-20.4l2.3-33.3c1.2-17-1.8-34.2-8.5-49.8
			l-12.7-29.3L982.9,325c-9.6-6.9-16.2-17-18.5-28.6l-8.7-43.8c-2.1-10.6,1.1-21.7,8.5-29.5l0.3-0.3c5.1-5.4,12.1-8.4,19.5-8.4
			c9.5,0,18.1,4.9,23.1,13l12.8,21.1c7.4,12.3,17.2,22.6,29,30.7l24.6,16.8l27.9,10.2c26.4,9.6,48,30,59.2,55.8
			c31.7,73.3,51.2,117.3,54.9,123.9c8.4,15.1-2.5,102.8-3.8,106.7l-0.2,0.5l-9,12.3C1188.4,624.5,1165.8,636,1142,636z M984,220.6
			c-5.7,0-11,2.3-15,6.5l-0.3,0.3c-6.1,6.4-8.7,15.4-6.9,24.1l8.7,43.8c2,10,7.7,18.8,16,24.7l50.6,36.2l13.4,30.9
			c7.1,16.5,10.3,34.7,9,52.6l-2.3,33.3c-0.4,5.1-0.3,13.3-0.3,19.9c0,2.6,0,5,0,7c0,1.8,0,3.6,0,5.3c-0.2,39-0.4,69.8,37.7,105.5
			c0.6,0.5,1.2,1.1,1.7,1.6c12.5,11.4,28.7,17.7,45.6,17.7c21.8,0,42.6-10.5,55.4-28.2l8.4-11.5c2.1-8.9,10.7-89.8,4.2-101.4
			c-4.9-8.7-32.7-72.5-55.2-124.4c-10.5-24.3-30.8-43.4-55.6-52.4l-28.6-10.4l-25.2-17.3c-12.6-8.6-23-19.6-30.8-32.6l-12.8-21.1
			C998,224.3,991.4,220.6,984,220.6z"/>
	</g>
	<g>
		<path fill="#E9CC85" d="M1143.4,620.3c24.1-0.1,45.4-17.5,54.5-38.5c9.2-21,8.1-44.9,3.2-67.1c-17.1,18-37.8,34.4-62.6,40.2
			c-24.9,5.7-54.6-1.8-67.7-22.6c3.5,20.1,8.3,40.4,19.8,57.6C1102.2,607,1121.9,620.4,1143.4,620.3z"/>
	</g>
	<g>
		<path fill="#FFFBEF" d="M1067.8,510.1c-6-24.5-2.8-50.3-2-75.5c0.7-25.3-1.7-52.2-17-72.4c16,17.6,32.7,36.9,35.5,60.5
			C1087.8,452.4,1068.4,480.3,1067.8,510.1z"/>
	</g>
	<g>
		<path fill="#FFFBEF" d="M1004.8,287.1c3.3-2.3,6.7-4.6,9.2-7.7c2.5-3.1,4.2-7.2,3.6-11.1c-0.4-2.7-1.9-5.1-3.4-7.5
			c-7-11.4-14-22.7-21-34.1c-7.8,5.5-15.6,11-23.4,16.4c1.9,12.5,5.9,24.7,11.7,35.9c3.1,6,8.1,12.5,14.8,11.9
			C999.4,290.7,1002.2,288.9,1004.8,287.1z"/>
	</g>
	<g>
		<polyline fill="#13BBC3" points="974.3,922.8 974.3,736.1 1219.5,736.1 1219.5,922.8 		"/>
		<polygon fill="#AD792C" points="1222.6,922.8 1216.5,922.8 1216.5,739.2 977.4,739.2 977.4,922.8 971.2,922.8 971.2,733
			1222.6,733 		"/>
	</g>
	<g>
		<rect x="1005.6" y="811.1" fill="#FFFFFF" width="68.7" height="107.7"/>
	</g>
	<g>
		<rect x="968.2" y="726.8" fill="#FFFFFF" width="257.5" height="92.1"/>
		<path fill="#AD792C" d="M1228.8,822H965.1v-98.3h263.7V822z M971.3,815.8h251.3v-85.9H971.3V815.8z"/>
	</g>
	<g>
		<g>
			<circle fill="#FFCF5E" cx="1173.4" cy="768.4" r="23.2"/>
		</g>
		<g>
			<g>
				<g>
					<circle fill="#FFFFFF" cx="1173.3" cy="779.4" r="4.7"/>
				</g>
				<g>
					<circle fill="#FFFFFF" cx="1162.4" cy="768.5" r="4.7"/>
				</g>
			</g>
			<g>
				<g>
					<circle fill="#FFFFFF" cx="1184.5" cy="768.3" r="4.7"/>
				</g>
				<g>
					<circle fill="#FFFFFF" cx="1173.6" cy="757.3" r="4.7"/>
				</g>
			</g>
		</g>
	</g>
	<g>
		<g>
			<g>
				<path fill="#FFFFFF" d="M979.7,491.5L938,449.9c-22.5-22.5-22.5-59.1,0-81.6l0.8-0.8c22.5-22.5,59.1-22.5,81.6,0l0.8,0.8
					c22.5,22.5,22.5,59.1,0,81.6L979.7,491.5z"/>
			</g>
		</g>
		<g>
			<g>
				<g>
					<g>
						<path fill="#13BBC3" d="M1009.9,383.4c0.6,0,4-1.6,4.2-2c0.3-0.4,2.3-2.1,2.6-2.1c0.3,0,10-0.8,9.5,1.6
							c-0.4,2.4-5.8,5.8-9,5.2c-3.2-0.6-3.9-0.5-5.1,0.1L1009.9,383.4z"/>
					</g>
				</g>
				<g>
					<g>
						<path fill="#13BBC3" d="M949.4,383.4c-0.6,0-4-1.6-4.2-2c-0.3-0.4-2.3-2.1-2.6-2.1c-0.3,0-10-0.8-9.5,1.6
							c0.4,2.4,5.8,5.8,9,5.2c3.2-0.6,3.9-0.5,5.1,0.1L949.4,383.4z"/>
					</g>
				</g>
			</g>
			<g>
				<g>
					<g>
						<path fill="#13BBC3" d="M953,434.3h-12.2c-1.4,0-2.5-1.1-2.5-2.5v-8.2c0-1.4,1.1-2.5,2.5-2.5H953c1.4,0,2.5,1.1,2.5,2.5v8.2
							C955.5,433.1,954.4,434.3,953,434.3z"/>
					</g>
				</g>
				<g>
					<g>
						<path fill="#13BBC3" d="M1018.6,434.3h-12.2c-1.4,0-2.5-1.1-2.5-2.5v-8.2c0-1.4,1.1-2.5,2.5-2.5h12.2c1.4,0,2.5,1.1,2.5,2.5
							v8.2C1021.1,433.1,1020,434.3,1018.6,434.3z"/>
					</g>
				</g>
			</g>
			<g>
				<g>
					<path fill="#13BBC3" d="M958.9,368c0,0,11.5-2,20.8-1.8c9.3-0.1,20.8,1.8,20.8,1.8c5.9,3.2,8.9,13.1,9.9,17
						c0.9,0.1,1.7,0.1,2.5,0.2c0,0-4.9-15.5-12.4-19.8c0,0-11.5-2.1-20.8-1.9c-9.3-0.1-20.8,1.9-20.8,1.9
						c-7.4,4.2-12.4,19.8-12.4,19.8c0.8-0.1,1.6-0.1,2.5-0.2C950,381.2,953,371.2,958.9,368z"/>
				</g>
			</g>
			<g>
				<g>
					<path fill="#13BBC3" d="M1024.2,424.1c0,0,0.1-10.7,0-13.4c-0.1-2.7-2-3.5-1.6-10.1c0.4-6.6-1.5-10.8-5.5-13.5
						s-6.9-1.9-6.9-1.9c-11.1-2.5-28.2-2.6-30.4-2.6c-2.2,0-19.3,0.1-30.4,2.6c0,0-2.9-0.8-6.9,1.9c-4,2.7-5.9,6.9-5.5,13.5
						c0.4,6.6-1.5,7.4-1.6,10.1c-0.1,2.7,0,13.4,0,13.4s-0.4,0.8,0.7,1.9c1.1,1.1,2.5,2.1,3.6,2.2c1.2,0.1,11.9,0,11.9,0
						s2.8-0.8,6.1-0.9c3-0.1,19,0,21.9,0v0c0,0,0.1,0,0.2,0c0.2,0,0.2,0,0.2,0v0c2.9,0,19-0.1,21.9,0c3.3,0.1,6.1,0.9,6.1,0.9
						s10.7,0.1,11.9,0c1.2-0.1,2.6-1.2,3.6-2.2C1024.5,425,1024.2,424.1,1024.2,424.1z"/>
				</g>
			</g>
			<g>
				<g>
					<path fill="#FFFFFF" d="M1000.2,408.9c-0.2-0.3-2-4.6-4.3-7.5c-0.9-1.1-2.1-1.8-3.5-1.9c-3-0.3-9-1-12-1.1v0
						c-0.1,0-0.1,0-0.2,0c-0.1,0-0.2,0-0.2,0v0c-2.9,0.1-8.9,0.7-12,1.1c-1.4,0.2-2.6,0.9-3.5,1.9c-2.3,2.9-4.1,7.2-4.3,7.5
						c-0.2,0.2-0.3,4.9-0.4,7.9c0,1.4,1.1,2.5,2.4,2.5H980h0.4h17.7c1.4,0,2.5-1.1,2.4-2.5C1000.5,413.8,1000.4,409.2,1000.2,408.9z
						"/>
				</g>
				<g>
					<path fill="#13BBC3" d="M998.2,419.5h-35.8c-0.7,0-1.4-0.3-1.9-0.8c-0.5-0.5-0.8-1.2-0.7-1.9c0.2-7.6,0.4-7.9,0.4-8
						c0,0,0.1-0.3,0.2-0.5c0.6-1.3,2.2-4.6,4.1-7c0.9-1.1,2.2-1.8,3.6-2c3.1-0.4,8.8-1,11.8-1.1v0l0.2,0l0.2,0l0.4,0v0
						c3,0.1,8.6,0.7,11.8,1.1c1.4,0.2,2.7,0.9,3.6,2c1.9,2.4,3.5,5.7,4.1,7c0.1,0.2,0.2,0.5,0.2,0.5c0.1,0.1,0.2,0.3,0.4,8
						c0,0.7-0.2,1.4-0.7,1.9C999.6,419.2,998.9,419.5,998.2,419.5z M980.1,398.7L980.1,398.7c-3,0.1-8.8,0.7-12,1.1
						c-1.3,0.2-2.5,0.8-3.3,1.8c-1.9,2.4-3.4,5.7-4,6.9c-0.2,0.3-0.2,0.5-0.3,0.5c0,0.1-0.2,1-0.4,7.7c0,0.6,0.2,1.2,0.6,1.6
						c0.4,0.4,1,0.7,1.6,0.7h35.8c0.6,0,1.2-0.2,1.6-0.7c0.4-0.4,0.6-1,0.6-1.6c-0.2-6.8-0.3-7.7-0.4-7.8c0,0-0.1-0.2-0.3-0.5
						c-0.6-1.2-2.2-4.5-4-6.9c-0.8-1-2-1.7-3.3-1.8c-3.2-0.4-9-1-11.9-1.1l-0.2,0l0,0L980.1,398.7z"/>
				</g>
			</g>
			<g>
				<g>
					<path fill="#FFFFFF" d="M941.7,391.9c0,0-1.9,3.6-1.5,8.9l1.3,4.5l12.7,0.1c0,0-0.7-8.1-0.9-8.9c-0.2-0.8-7.4-5.3-7.9-5.4
						C944.9,390.9,941.7,391.9,941.7,391.9z"/>
				</g>
				<g>
					<path fill="#13BBC3" d="M954.5,405.6l-13.1-0.1l-1.3-4.7c-0.4-5.3,1.5-8.9,1.6-9.1l0-0.1l0.1,0c0.1,0,2.9-0.8,3.6-0.8
						c0.1,0,0.1,0,0.2,0c0.5,0.1,7.8,4.6,8,5.6c0.2,0.8,0.9,8.6,0.9,9L954.5,405.6z M941.7,405l12.3,0.1c-0.3-2.9-0.7-8-0.9-8.7
						c-0.2-0.7-7.1-5.1-7.7-5.3l0,0c0,0,0,0-0.1,0c-0.5,0-2.5,0.6-3.4,0.8c-0.3,0.6-1.8,4-1.5,8.7L941.7,405z"/>
				</g>
			</g>
			<g>
				<g>
					<path fill="#FFFFFF" d="M1018.4,391.9c0,0,1.9,3.6,1.5,8.9l-1.3,4.5l-12.7,0.1c0,0,0.7-8.1,0.9-8.9c0.2-0.8,7.4-5.3,7.9-5.4
						C1015.2,390.9,1018.4,391.9,1018.4,391.9z"/>
				</g>
				<g>
					<path fill="#13BBC3" d="M1005.7,405.6l0-0.2c0-0.3,0.7-8.1,0.9-9c0.3-0.9,7.6-5.4,8-5.6c0,0,0.1,0,0.2,0c0.7,0,3.5,0.8,3.6,0.8
						l0.1,0l0,0.1c0.1,0.2,1.9,3.8,1.6,9.1l0,0l-1.3,4.6L1005.7,405.6z M1014.9,391.2C1014.8,391.2,1014.8,391.2,1014.9,391.2
						c-0.7,0.2-7.6,4.6-7.8,5.3c-0.2,0.6-0.7,5.8-0.9,8.7l12.3-0.1l1.2-4.3c0.3-4.7-1.2-8.1-1.5-8.7
						C1017.4,391.8,1015.4,391.2,1014.9,391.2z"/>
				</g>
			</g>
			<g>
				<g>
					<path fill="#FFFFFF" d="M999.2,423.9h-37.8c-0.8,0-1.5-0.7-1.5-1.5v0c0-0.8,0.7-1.5,1.5-1.5h37.8c0.8,0,1.5,0.7,1.5,1.5v0
						C1000.6,423.3,1000,423.9,999.2,423.9z"/>
				</g>
				<g>
					<path fill="#13BBC3" d="M999.2,424.1h-37.8c-0.9,0-1.7-0.8-1.7-1.7c0-1,0.8-1.7,1.7-1.7h37.8c0.9,0,1.7,0.8,1.7,1.7
						C1000.8,423.4,1000.1,424.1,999.2,424.1z M961.4,421.2c-0.7,0-1.2,0.6-1.2,1.2c0,0.7,0.6,1.3,1.2,1.3h37.8
						c0.7,0,1.2-0.6,1.2-1.2c0-0.7-0.6-1.3-1.2-1.3H961.4z"/>
				</g>
			</g>
		</g>
		<g>
			<g>
				<g>
					<circle fill="#13BBC3" cx="974.1" cy="377.3" r="4"/>
				</g>
				<g>
					<circle fill="#13BBC3" cx="985.2" cy="377.3" r="4"/>
				</g>
			</g>
			<g>
				<g>
					<circle fill="#13BBC3" cx="963.1" cy="376.3" r="5"/>
				</g>
				<g>
					<circle fill="#13BBC3" cx="996.2" cy="376.3" r="5"/>
				</g>
			</g>
		</g>
	</g>
	<g>
		<path fill="#FFCF5E" d="M1010.5,579.3h-47.7c-3.7,0-6.7-3-6.7-6.7v-0.5c0-3.7,3-6.7,6.7-6.7h47.7c3.7,0,6.7,3,6.7,6.7v0.5
			C1017.2,576.3,1014.2,579.3,1010.5,579.3z"/>
	</g>
	<g>
		<g>
			<circle fill="#FFCF5E" cx="889.5" cy="103" r="3.5"/>
		</g>
		<g>
			<circle fill="#FFCF5E" cx="904.7" cy="103" r="3.5"/>
		</g>
		<g>
			<circle fill="#FFCF5E" cx="919.8" cy="103" r="3.5"/>
		</g>
		<g>
			<circle fill="#FFCF5E" cx="935" cy="103" r="3.5"/>
		</g>
	</g>
	<g>
		<circle fill="#FFCF5E" cx="1082" cy="105.2" r="8.7"/>
	</g>
	<g>
		<g>
			<path fill="#FFCF5E" d="M704.3,460H462.6c-0.6,0-1.1-0.1-1.6-0.3L420,442.3c-2.1-0.9-3.1-3.3-2.2-5.5c0.9-2.1,3.3-3.1,5.5-2.2
				l40.1,17h240.9c2.3,0,4.2,1.9,4.2,4.2S706.6,460,704.3,460z"/>
		</g>
	</g>
	<g>
		<g>
			<path fill="#E48D2B" d="M506.6,457.7h-15.1c-0.9,0-1.5-0.7-1.5-1.5c0-0.9,0.7-1.5,1.5-1.5h15.1c0.9,0,1.5,0.7,1.5,1.5
				C508.2,457,507.5,457.7,506.6,457.7z"/>
		</g>
		<g>
			<path fill="#E48D2B" d="M623.7,457.7h-15.1c-0.9,0-1.5-0.7-1.5-1.5c0-0.9,0.7-1.5,1.5-1.5h15.1c0.9,0,1.5,0.7,1.5,1.5
				C625.2,457,624.5,457.7,623.7,457.7z"/>
		</g>
	</g>
	<g>
		<path fill="#FFFBEF" d="M726.2,494.7c0,0-2.8-19.4-12.4-32.8c-1.8-2.5,0.1-6,3.2-6h3c0,0,15.3,13.2,16.6,39.2L726.2,494.7z"/>
		<path fill="#72736E" d="M738.1,496.5l-13.2-0.4l-0.2-1.2c0-0.2-2.9-19.2-12.1-32.2c-1.1-1.6-1.3-3.7-0.4-5.5
			c0.9-1.8,2.7-2.9,4.7-2.9h3.5l0.4,0.4c0.6,0.6,15.7,13.9,17.2,40.2L738.1,496.5z M727.4,493.2l7.6,0.3
			c-1.7-21.8-13.4-34-15.7-36.2H717c-0.9,0-1.7,0.5-2.1,1.3c-0.4,0.8-0.3,1.7,0.2,2.4C723.4,472.8,726.6,488.7,727.4,493.2z"/>
	</g>
	<g>
		<path fill="#E48D2B" d="M674.8,438.1c0,0-9.7-7.8-21.2-7.6v17.3c0,0,16,0.2,19.1-1.7C675.9,444.2,674.8,438.1,674.8,438.1z"/>
	</g>
	<g>
		<path fill="#434441" d="M471.8,404.8h-33.2c-5.7,0-10.8,3.9-12,9.5c-2,8.8,2.9,17.7,11.3,20.9l21.2,8.1c3.9,1.5,8,2.2,12.2,2.2h0
			c3.2,0,5.7-2.6,5.7-5.7v-29.9C477,407.1,474.7,404.8,471.8,404.8z"/>
		<path fill="#FFCF5E" d="M471.2,447c-4.4,0-8.6-0.8-12.7-2.3l-21.2-8.1c-9-3.4-14.3-13.2-12.2-22.6c1.4-6.2,7-10.7,13.5-10.7h33.2
			c3.6,0,6.6,3,6.6,6.6v29.9C478.4,443.8,475.2,447,471.2,447z M438.6,406.2c-5.1,0-9.5,3.5-10.6,8.4c-1.8,8,2.7,16.3,10.4,19.2
			l21.2,8.1c3.7,1.4,7.7,2.1,11.7,2.1c2.4,0,4.3-1.9,4.3-4.3v-29.9c0-2-1.6-3.7-3.7-3.7H438.6z"/>
	</g>
	<g>
		<path fill="#434441" d="M533.9,404.8h-47.2c-1.8,0-3.2,1.4-3.2,3.2v34.4c0,1.8,1.4,3.2,3.2,3.2h47.2c1.8,0,3.2-1.4,3.2-3.2V408
			C537.1,406.2,535.6,404.8,533.9,404.8z"/>
		<path fill="#FFCF5E" d="M533.9,447h-47.2c-2.6,0-4.7-2.1-4.7-4.7V408c0-2.6,2.1-4.7,4.7-4.7h47.2c2.6,0,4.7,2.1,4.7,4.7v34.4
			C538.5,444.9,536.4,447,533.9,447z M486.7,406.2c-1,0-1.7,0.8-1.7,1.7v34.4c0,1,0.8,1.7,1.7,1.7h47.2c1,0,1.7-0.8,1.7-1.7V408
			c0-1-0.8-1.7-1.7-1.7H486.7z"/>
	</g>
	<g>
		<g>
			<path fill="#434441" d="M594.2,404.8h-47.5c-1.8,0-3.2,1.4-3.2,3.2v34.4c0,1.8,1.4,3.2,3.2,3.2h47.5c1.8,0,3.2-1.4,3.2-3.2V408
				C597.4,406.2,596,404.8,594.2,404.8z"/>
			<path fill="#FFCF5E" d="M594.2,447h-47.5c-2.6,0-4.7-2.1-4.7-4.7V408c0-2.6,2.1-4.7,4.7-4.7h47.5c2.6,0,4.7,2.1,4.7,4.7v34.4
				C598.9,444.9,596.8,447,594.2,447z M546.8,406.2c-1,0-1.7,0.8-1.7,1.7v34.4c0,1,0.8,1.7,1.7,1.7h47.5c1,0,1.7-0.8,1.7-1.7V408
				c0-1-0.8-1.7-1.7-1.7H546.8z"/>
		</g>
		<g>
			<path fill="#434441" d="M674.3,436.2c-9.7-12-20.4-22.5-32.7-30.5c-0.9-0.6-2-0.9-3.1-0.9h-31.2c-1.8,0-3.3,1.5-3.3,3.3v34.1
				c0,1.8,1.5,3.3,3.3,3.3h62.6C674.7,445.6,677.3,439.9,674.3,436.2z"/>
			<path fill="#FFCF5E" d="M669.8,447h-62.6c-2.6,0-4.8-2.1-4.8-4.8v-34.1c0-2.6,2.1-4.8,4.8-4.8h31.2c1.4,0,2.8,0.4,3.9,1.1
				c11.6,7.5,22.4,17.6,33.1,30.8c1.8,2.2,2.1,5.1,0.9,7.7C675.1,445.4,672.6,447,669.8,447z M607.2,406.2c-1,0-1.9,0.8-1.9,1.9
				v34.1c0,1,0.8,1.9,1.9,1.9h62.6c1.7,0,3.2-0.9,3.9-2.5c0.7-1.5,0.5-3.2-0.5-4.6c-10.5-12.9-21.1-22.8-32.4-30.1
				c-0.7-0.4-1.5-0.7-2.3-0.7H607.2z"/>
		</g>
	</g>
</g>
</svg>
